<?xml version="1.0" standalone="no"?>
<!DOCTYPE svg PUBLIC "-//W3C//DTD SVG 20010904//EN"
 "http://www.w3.org/TR/2001/REC-SVG-20010904/DTD/svg10.dtd">
<svg version="1.0" xmlns="http://www.w3.org/2000/svg"
 width="256.000000pt" height="256.000000pt" viewBox="0 0 256.000000 256.000000"
 preserveAspectRatio="xMidYMid meet">
<metadata>
Created by potrace 1.11, written by Peter Selinger 2001-2013
</metadata>
<g transform="translate(0.000000,256.000000) scale(0.100000,-0.100000)"
fill="#000000" stroke="none">
<path d="M1079 2495 c-417 -79 -757 -355 -919 -746 -109 -261 -119 -591 -28
-864 142 -425 511 -744 947 -820 123 -22 321 -19 442 5 441 90 791 404 927
830 46 144 55 223 50 426 -4 137 -10 197 -26 254 -122 451 -450 782 -890 897
-123 32 -380 41 -503 18z m-8 -631 c63 -19 158 -65 204 -100 41 -31 50 -30 93
7 20 18 70 48 111 68 72 34 81 36 181 36 97 0 110 -2 172 -32 155 -73 248
-237 248 -438 0 -176 -59 -299 -243 -507 -90 -102 -486 -438 -516 -438 -15 0
-265 195 -383 299 -187 164 -321 329 -374 461 -48 118 -39 293 23 420 38 79
153 191 223 218 68 26 184 29 261 6z"/>
</g>
</svg>
